<mxfile host="app.diagrams.net" modified="2024-04-26T17:31:50.980Z" agent="Mozilla/5.0 (X11; Ubuntu; Linux x86_64; rv:125.0) Gecko/20100101 Firefox/125.0" version="24.2.7" etag="H1b729uv6tmVbxV_gneD" type="github">
  <diagram name="第 1 页" id="ORG4xxPNkkgLU3kPSzid">
    <mxGraphModel>
      <root>
        <mxCell id="0" />
        <mxCell id="1" parent="0" />
      </root>
    </mxGraphModel>
  </diagram>
</mxfile>
